FFmpeg version SVN-r25716, Copyright (c) 2000-2010 the FFmpeg developers  built on Nov 10 2010 12:23:18 with gcc 4.1.2 20080704 (Red Hat 4.1.2-48)  configuration: --enable-libmp3lame --enable-shared --disable-mmx --arch=x86_64  libavutil     50.33. 0 / 50.33. 0  libavcore      0.12. 1 /  0.12. 1  libavcodec    52.94. 4 / 52.94. 4  libavformat   52.84. 0 / 52.84. 0  libavdevice   52. 2. 2 / 52. 2. 2  libavfilter    1.59. 0 /  1.59. 0  libswscale     0.12. 0 /  0.12. 0Input #0, avi, from '/RAID10/data/converted_video_files/11953.avi':  Duration: 00:00:41.10, start: 0.000000, bitrate: 16391 kb/s    Stream #0.0: Video: mpeg4, yuv420p, 720x480 [PAR 1:1 DAR 3:2], 25 tbr, 29.97 tbn, 25 tbc    Stream #0.1: Audio: pcm_s16le, 48000 Hz, 2 channels, s16, 1536 kb/s[buffer @ 0x13317660] w:720 h:480 pixfmt:yuv420pOutput #0, flv, to '/RAID10/data/converted_video_files/11953.flv':  Metadata:    encoder         : Lavf52.84.0    Stream #0.0: Video: flv, yuv420p, 720x480 [PAR 1:1 DAR 3:2], q=2-31, 600 kb/s, 1k tbn, 24 tbc    Stream #0.1: Audio: libmp3lame, 22050 Hz, 2 channels, s16, 96 kb/sStream mapping:  Stream #0.0 -> #0.0  Stream #0.1 -> #0.1Press [q] to stop encodingframe=   27 fps=  0 q=19.1 size=     303kB time=1.17 bitrate=2126.6kbits/s dup=0 drop=7    frame=   58 fps= 55 q=20.1 size=     408kB time=2.46 bitrate=1360.2kbits/s dup=0 drop=14    frame=   92 fps= 54 q=20.6 size=     518kB time=3.87 bitrate=1095.7kbits/s dup=0 drop=23    frame=  127 fps= 58 q=24.8 size=     641kB time=5.33 bitrate= 985.1kbits/s dup=0 drop=31    frame=  160 fps= 59 q=29.3 size=     753kB time=6.71 bitrate= 920.0kbits/s dup=0 drop=40    frame=  194 fps= 60 q=27.5 size=     876kB time=8.12 bitrate= 883.3kbits/s dup=0 drop=48    frame=  228 fps= 61 q=27.2 size=     994kB time=9.54 bitrate= 853.0kbits/s dup=0 drop=57    frame=  264 fps= 62 q=19.4 size=    1109kB time=11.04 bitrate= 822.6kbits/s dup=0 drop=65    frame=  299 fps= 63 q=30.2 size=    1239kB time=12.50 bitrate= 811.9kbits/s dup=0 drop=74    frame=  332 fps= 63 q=22.5 size=    1369kB time=13.87 bitrate= 808.2kbits/s dup=0 drop=82    frame=  367 fps= 64 q=21.4 size=    1487kB time=15.33 bitrate= 794.4kbits/s dup=0 drop=91    frame=  402 fps= 64 q=17.5 size=    1607kB time=16.79 bitrate= 784.1kbits/s dup=0 drop=100    frame=  437 fps= 65 q=20.2 size=    1719kB time=18.25 bitrate= 771.6kbits/s dup=0 drop=108    frame=  472 fps= 65 q=21.2 size=    1846kB time=19.71 bitrate= 767.4kbits/s dup=0 drop=117    frame=  507 fps= 65 q=21.8 size=    1972kB time=21.17 bitrate= 763.2kbits/s dup=0 drop=126    frame=  542 fps= 65 q=19.0 size=    2091kB time=22.62 bitrate= 757.3kbits/s dup=0 drop=135    frame=  578 fps= 66 q=13.2 size=    2214kB time=24.12 bitrate= 751.9kbits/s dup=0 drop=144    frame=  616 fps= 66 q=15.1 size=    2332kB time=25.71 bitrate= 743.1kbits/s dup=0 drop=153    frame=  655 fps= 67 q=13.2 size=    2449kB time=27.33 bitrate= 734.0kbits/s dup=0 drop=163    frame=  692 fps= 67 q=13.3 size=    2588kB time=28.87 bitrate= 734.2kbits/s dup=0 drop=172    frame=  730 fps= 67 q=11.4 size=    2709kB time=30.46 bitrate= 728.6kbits/s dup=0 drop=181    frame=  767 fps= 68 q=11.1 size=    2832kB time=32.00 bitrate= 724.9kbits/s dup=0 drop=191    frame=  805 fps= 68 q=7.7 size=    2969kB time=33.58 bitrate= 724.2kbits/s dup=0 drop=200    frame=  842 fps= 68 q=9.9 size=    3098kB time=35.12 bitrate= 722.6kbits/s dup=0 drop=209    frame=  879 fps= 68 q=10.8 size=    3235kB time=36.67 bitrate= 722.7kbits/s dup=0 drop=218    frame=  916 fps= 69 q=10.5 size=    3366kB time=38.21 bitrate= 721.7kbits/s dup=0 drop=228    frame=  953 fps= 69 q=12.0 size=    3509kB time=39.75 bitrate= 723.1kbits/s dup=0 drop=237    frame=  987 fps= 69 q=10.9 Lsize=    3629kB time=41.17 bitrate= 722.2kbits/s dup=0 drop=245    video:3107kB audio:482kB global headers:0kB muxing overhead 1.124513%